<?xml version="1.0" encoding="UTF-8" standalone="no"?>
<!-- Created with Inkscape (http://www.inkscape.org/) -->

<svg
   xmlns:dc="http://purl.org/dc/elements/1.1/"
   xmlns:cc="http://creativecommons.org/ns#"
   xmlns:rdf="http://www.w3.org/1999/02/22-rdf-syntax-ns#"
   xmlns:svg="http://www.w3.org/2000/svg"
   xmlns="http://www.w3.org/2000/svg"
   xmlns:sodipodi="http://sodipodi.sourceforge.net/DTD/sodipodi-0.dtd"
   xmlns:inkscape="http://www.inkscape.org/namespaces/inkscape"
   width="100.26082mm"
   height="120.56496mm"
   viewBox="0 0 100.26082 120.56496"
   version="1.1"
   id="svg8"
   inkscape:version="0.92.2 2405546, 2018-03-11"
   sodipodi:docname="player.svg.2018_04_22_22_57_27.0.svg"
   inkscape:export-filename="/home/bc/loveFiles/v11/Jumponoid/images/titleimage.png"
   inkscape:export-xdpi="106.4"
   inkscape:export-ydpi="106.4">
  <defs
     id="defs2" />
  <sodipodi:namedview
     id="base"
     pagecolor="#ffffff"
     bordercolor="#666666"
     borderopacity="1.0"
     inkscape:pageopacity="0.0"
     inkscape:pageshadow="2"
     inkscape:zoom="0.98994949"
     inkscape:cx="147.6383"
     inkscape:cy="281.80833"
     inkscape:document-units="mm"
     inkscape:current-layer="layer1"
     showgrid="false"
     showguides="true"
     inkscape:window-width="1678"
     inkscape:window-height="1031"
     inkscape:window-x="0"
     inkscape:window-y="18"
     inkscape:window-maximized="0"
     fit-margin-top="0"
     fit-margin-left="0"
     fit-margin-right="0"
     fit-margin-bottom="0" />
  <metadata
     id="metadata5">
    <rdf:RDF>
      <cc:Work
         rdf:about="">
        <dc:format>image/svg+xml</dc:format>
        <dc:type
           rdf:resource="http://purl.org/dc/dcmitype/StillImage" />
        <dc:title />
      </cc:Work>
    </rdf:RDF>
  </metadata>
  <g
     inkscape:label="Layer 1"
     inkscape:groupmode="layer"
     id="layer1"
     transform="translate(0.13041306,-176.56545)">
    <ellipse
       style="fill:#fb0000;fill-opacity:1;fill-rule:nonzero;stroke:#000000;stroke-width:1;stroke-miterlimit:4;stroke-dasharray:none;stroke-opacity:1"
       id="path815"
       cx="49.999996"
       cy="247"
       rx="49.630409"
       ry="49.630413" />
    <path
       style="fill:#fffff7;fill-opacity:1;stroke:#000000;stroke-width:1;stroke-linecap:butt;stroke-linejoin:miter;stroke-miterlimit:4;stroke-dasharray:none;stroke-opacity:1"
       d="m 29.251233,216.0443 c 13.607143,6.99256 31.749999,7.37054 44.601189,-0.56696 19.997729,47.48812 -62.668744,50.98947 -44.601189,0.56696 z"
       id="path836"
       inkscape:connector-curvature="0"
       sodipodi:nodetypes="ccc" />
    <path
       style="fill:#fffff7;fill-opacity:1;stroke:#000000;stroke-width:1;stroke-linecap:butt;stroke-linejoin:miter;stroke-miterlimit:4;stroke-dasharray:none;stroke-opacity:1"
       d="m 6.8694289,249.68852 c 11.0042121,15.2897 53.2250061,37.54717 88.3741041,-0.8018 -11.874208,51.19649 -75.5409,54.65572 -88.3741041,0.8018 z"
       id="path836-3"
       inkscape:connector-curvature="0"
       sodipodi:nodetypes="ccc" />
    <path
       style="fill:#500000;fill-opacity:1;stroke:none;stroke-width:0.26458332px;stroke-linecap:butt;stroke-linejoin:miter;stroke-opacity:1"
       d="m 40.421968,219.88099 a 12.22758,12.093946 0 0 0 -1.990574,6.59443 12.22758,12.093946 0 0 0 12.227676,12.09383 12.22758,12.093946 0 0 0 12.227676,-12.09383 12.22758,12.093946 0 0 0 -1.868101,-6.41305 c -6.625968,1.26473 -13.8239,1.13626 -20.596677,-0.18138 z"
       id="path836-7"
       inkscape:connector-curvature="0" />
    <path
       style="fill:none;stroke:#c40000;stroke-width:1;stroke-linecap:round;stroke-linejoin:miter;stroke-miterlimit:4;stroke-dasharray:none;stroke-opacity:1"
       d="m 31.938707,212.54283 c 17.155414,6.42971 31.191582,2.81648 38.085908,-0.4009"
       id="path825"
       inkscape:connector-curvature="0"
       sodipodi:nodetypes="cc" />
    <ellipse
       style="fill:#c40000;fill-opacity:1;fill-rule:nonzero;stroke:#000000;stroke-width:1;stroke-linecap:round;stroke-miterlimit:4;stroke-dasharray:none;stroke-opacity:1"
       id="path844"
       cx="-121.49715"
       cy="173.55566"
       rx="9.4966516"
       ry="3.3545387"
       transform="rotate(-39.970652)" />
    <path
       style="fill:#750000;fill-opacity:1;stroke:#000000;stroke-width:1;stroke-linecap:butt;stroke-linejoin:miter;stroke-miterlimit:4;stroke-dasharray:none;stroke-opacity:1"
       d="m 12.561668,214.81462 c 0,0 -7.0826428,-8.8199 -3.7417737,-17.63979 5.4790257,8.68626 14.0316497,9.48807 14.0316497,9.48807 0,0 -2.806329,6.5481 -10.289876,8.15172 z"
       id="path827"
       inkscape:connector-curvature="0"
       sodipodi:nodetypes="cccc" />
    <ellipse
       style="fill:#c40000;fill-opacity:1;fill-rule:nonzero;stroke:#000000;stroke-width:1;stroke-linecap:round;stroke-miterlimit:4;stroke-dasharray:none;stroke-opacity:1"
       id="path844-6"
       cx="-198.07501"
       cy="109.23402"
       rx="9.4966516"
       ry="3.3545387"
       transform="matrix(-0.76637359,-0.64239514,-0.64239514,0.76637359,0,0)" />
    <path
       style="fill:#750000;fill-opacity:1;stroke:#000000;stroke-width:1;stroke-linecap:butt;stroke-linejoin:miter;stroke-miterlimit:4;stroke-dasharray:none;stroke-opacity:1"
       d="m 87.445504,214.71345 c 0,0 7.082643,-8.8199 3.741774,-17.63979 -5.479026,8.68626 -14.03165,9.48807 -14.03165,9.48807 0,0 2.806329,6.5481 10.289876,8.15172 z"
       id="path827-7"
       inkscape:connector-curvature="0"
       sodipodi:nodetypes="cccc" />
    <circle
       style="fill:#ffffff;fill-opacity:1;fill-rule:nonzero;stroke:none;stroke-width:1;stroke-linecap:round;stroke-miterlimit:4;stroke-dasharray:none;stroke-opacity:1"
       id="path864"
       cx="43.183777"
       cy="223.9561"
       r="1.2284226" />
    <path
       style="fill:none;stroke:#000000;stroke-width:1.07648945;stroke-linecap:butt;stroke-linejoin:miter;stroke-miterlimit:50;stroke-dasharray:none;stroke-opacity:1"
       d="m 38.104158,277.10386 c 4.506758,1.40738 22.001165,0.84933 24.472691,-0.2549 -2.568654,1.83951 -21.282038,2.09039 -24.472691,0.2549 z"
       id="path866"
       inkscape:connector-curvature="0"
       sodipodi:nodetypes="ccc" />
    <path
       style="fill:none;stroke:#000000;stroke-width:0.40304932;stroke-linecap:butt;stroke-linejoin:miter;stroke-miterlimit:50;stroke-dasharray:none;stroke-opacity:1"
       d="m 44.961995,274.52868 c 0.207689,1.5648 0.174328,5.24004 -0.0887,7.03599 -0.346549,-2.00864 -0.173959,-5.486 0.0887,-7.03599 z"
       id="path866-5"
       inkscape:connector-curvature="0"
       sodipodi:nodetypes="ccc" />
    <path
       style="fill:none;stroke:#000000;stroke-width:0.40304932;stroke-linecap:butt;stroke-linejoin:miter;stroke-miterlimit:50;stroke-dasharray:none;stroke-opacity:1"
       d="m 56.467845,274.47382 c 0.207689,1.5648 0.174328,5.24004 -0.0887,7.03599 -0.346549,-2.00864 -0.173959,-5.486 0.0887,-7.03599 z"
       id="path866-5-3"
       inkscape:connector-curvature="0"
       sodipodi:nodetypes="ccc" />
    <path
       style="fill:#ff0046;fill-opacity:1;stroke:#000000;stroke-width:1;stroke-linecap:butt;stroke-linejoin:miter;stroke-miterlimit:4;stroke-dasharray:none;stroke-opacity:1"
       d="m 32.939002,202.66268 c -2.097894,-4.2172 2.633543,-8.0711 3.741772,-13.0962 1.202713,-4.81085 -0.668173,-11.75986 -0.668173,-11.75986 8.41899,6.1472 8.953531,14.69982 8.953531,14.69982 0.434313,-0.63477 2.004522,-4.94448 9.087164,-11.09168 -2.539061,9.48806 1.202712,12.96257 1.202712,12.96257 0,0 0.935444,-7.75081 9.488069,-9.6217 -1.469982,8.55262 4.944484,9.35443 5.479023,13.89801 0.668174,4.40995 -4.944485,8.01809 -4.944485,8.01809 -7.617182,2.80633 -23.118815,3.34087 -27.662397,0.26727 0,0 -2.672694,-0.26727 -4.677216,-4.27632 z"
       id="path898"
       inkscape:connector-curvature="0"
       sodipodi:nodetypes="ccccccccccc" />
    <path
       style="fill:none;stroke:#000000;stroke-width:1;stroke-linecap:butt;stroke-linejoin:miter;stroke-miterlimit:20;stroke-dasharray:none;stroke-opacity:1"
       d="m 44.966133,192.50644 c -0.573102,1.46267 -1.120355,2.69655 -0.601178,3.95189 -0.297931,-1.7435 0.0821,-3.05892 0.601178,-3.95189"
       id="path900"
       inkscape:connector-curvature="0"
       sodipodi:nodetypes="ccc" />
    <path
       style="fill:#ffffff;fill-opacity:1;stroke:none;stroke-width:0.26458332px;stroke-linecap:butt;stroke-linejoin:miter;stroke-opacity:1"
       d="m 9.1572029,199.64385 c -1.3386319,4.63701 1.6784741,10.69597 4.1426771,13.0962 -1.19749,-2.49115 -4.1510611,-7.85565 -4.1426771,-13.0962 z"
       id="path917"
       inkscape:connector-curvature="0"
       sodipodi:nodetypes="ccc" />
    <path
       style="fill:#ffffff;fill-opacity:1;stroke:none;stroke-width:0.26458332px;stroke-linecap:butt;stroke-linejoin:miter;stroke-opacity:1"
       d="m 91.10821,198.86188 c -1.482186,4.59314 -7.370865,7.93041 -10.755838,8.54308 2.385487,-1.39616 7.833277,-4.19313 10.755838,-8.54308 z"
       id="path917-6"
       inkscape:connector-curvature="0"
       sodipodi:nodetypes="ccc" />
  </g>
</svg>
